<?xml version="1.0" encoding="UTF-8"?>
<svg width="22px" height="22px" viewBox="0 0 22 22" version="1.1" xmlns="http://www.w3.org/2000/svg" xmlns:xlink="http://www.w3.org/1999/xlink">
    <!-- Generator: Sketch 64 (93537) - https://sketch.com -->
    <title>medium</title>
    <desc>Created with Sketch.</desc>
    <g id="medium" stroke="none" stroke-width="1" fill="none" fill-rule="evenodd">
        <path d="M21.4999499,21.4999964 L21.4999499,0.500046492 L0.5,0.500046492 L0.5,21.4999964 L21.4999499,21.4999964 Z M17.9234051,16.4328393 L12.3921683,16.4328393 L12.3921683,16.2031341 L13.5312189,15.096905 C13.624984,15.00314 13.6406115,14.9647197 13.6432161,14.8568721 L13.643737,8.36564358 L10.4749671,16.4094019 L10.0484239,16.4094019 L6.35936103,8.36564358 L6.35936103,13.7562557 C6.32653945,13.981246 6.40623592,14.2109513 6.56562885,14.3750134 L8.04685701,16.1703125 L8.04685701,16.4094019 L3.8375012,16.4094019 L3.8375012,16.1703125 L5.31872936,14.3750134 C5.47812229,14.2109513 5.54843462,13.981246 5.51094386,13.7562557 L5.51094386,7.52189559 C5.52966635,7.34844935 5.46406898,7.17971807 5.33278267,7.06253085 L4.01561662,5.47345382 L4.01561662,5.2344102 L8.10778521,5.2344102 L11.267171,12.1718937 L14.0468427,5.23907938 L17.9468426,5.23907938 L17.9468426,5.47345382 L16.8218452,6.55157625 C16.7233805,6.62660354 16.6765056,6.74845994 16.6952739,6.86564716 L16.6952739,14.8015566 C16.6765056,14.9234588 16.7233805,15.0453152 16.8218452,15.1156275 L17.9234051,16.1937499 L17.9234051,16.4328393 Z" id="m" fill="#212121" fill-rule="nonzero"></path>
    </g>
</svg>